<svg id="Layer_2" data-name="Layer 2" xmlns="http://www.w3.org/2000/svg" width="96.034" height="96.034" viewBox="0 0 96.034 96.034">
  <g id="Layer_1" data-name="Layer 1">
    <path id="Path_5" data-name="Path 5" d="M107.38,69.506c17.175,0,31.224,13.955,32.261,31.575.024.411.283.671.52.518a2.015,2.015,0,0,1,2.271-.03c.251.156.521-.161.51-.6-.512-19.257-15.508-34.7-33.933-34.7-18.757,0-33.95,15.994-33.95,35.724v.608C75.356,84.269,89.713,69.506,107.38,69.506Z" transform="translate(-60.981 -53.84)" fill="#b54c9c"/>
    <path id="Path_6" data-name="Path 6" d="M142.907,252.08c-.293,18.327-14.649,33.091-32.316,33.091-17.175,0-31.224-13.957-32.261-31.575-.024-.411-.283-.671-.52-.518a2.024,2.024,0,0,1-2.271.03c-.251-.158-.521.159-.51.6.512,19.257,15.508,34.7,33.933,34.7,18.757,0,33.95-15.994,33.95-35.722Q142.922,252.384,142.907,252.08Z" transform="translate(-60.955 -204.798)" fill="#b54c9c"/>
    <path id="Path_7" data-name="Path 7" d="M273.59,163.043c0,10.29-8.44,18.706-19.085,19.319-.249.013-.407.169-.313.31a1.2,1.2,0,0,1,.019,1.362c-.1.15.1.311.36.306,11.642-.3,20.979-9.275,20.979-20.323,0-11.232-9.669-20.336-21.595-20.336h-.375C264.667,143.858,273.59,152.458,273.59,163.043Z" transform="translate(-206.017 -116.73)" fill="#b54c9c"/>
    <path id="Path_8" data-name="Path 8" d="M163.25,184.366c-11.078-.174-20-8.776-20-19.361,0-10.29,8.44-18.706,19.085-19.319.249-.015.407-.169.313-.311a1.2,1.2,0,0,1-.019-1.36c.1-.152-.1-.313-.36-.306-11.642.306-20.979,9.29-20.979,20.328,0,11.232,9.669,20.338,21.595,20.338Z" transform="translate(-114.789 -116.754)" fill="#b54c9c"/>
    <path id="Path_9" data-name="Path 9" d="M78.932,11.273a35.882,35.882,0,0,0,2.66-5.209A35.85,35.85,0,0,0,83.467.129L49.938.039Q48.985,0,48.017,0A48.011,48.011,0,1,0,78.932,11.273ZM48.017,81.967A33.938,33.938,0,1,1,81.955,48.028,33.946,33.946,0,0,1,48.017,81.967Z" fill="#b54c9c"/>
  </g>
</svg>
