<svg width="61" height="61" viewBox="0 0 61 61" fill="none" xmlns="http://www.w3.org/2000/svg">
<g clip-path="url(#clip0_1:5)">
<path d="M29.4723 9.95092C40.3817 9.95092 49.3055 18.815 49.9642 30.0071C49.9794 30.2682 50.1439 30.4333 50.2945 30.3361C50.5051 30.1883 50.7555 30.1074 51.0128 30.104C51.2701 30.1006 51.5225 30.1749 51.737 30.3171C51.8964 30.4162 52.0679 30.2148 52.061 29.936C51.7357 17.7041 42.2104 7.89481 30.507 7.89481C18.5927 7.89481 8.94223 18.0541 8.94223 30.5864V30.9726C9.13088 19.3283 18.2503 9.95092 29.4723 9.95092Z" fill="#FE4167"/>
<path d="M52.0552 30.0331C51.8691 41.6743 42.7503 51.0523 31.5283 51.0523C20.6189 51.0523 11.6951 42.1869 11.0364 30.9961C11.0212 30.735 10.8567 30.5699 10.7061 30.6671C10.4952 30.8142 10.2449 30.8946 9.98778 30.898C9.73063 30.9014 9.47836 30.8276 9.26359 30.6861C9.10416 30.5858 8.93266 30.7871 8.93964 31.0672C9.26486 43.2991 18.7902 53.1084 30.4936 53.1084C42.4079 53.1084 52.0584 42.9491 52.0584 30.4181C52.0626 30.2902 52.0615 30.1619 52.0552 30.0331Z" fill="#FE4167"/>
<path d="M42.9218 29.4176C42.9218 35.9537 37.5608 41.2995 30.7992 41.6889C30.641 41.6971 30.5407 41.7962 30.6004 41.8858C30.6898 42.0118 30.7389 42.162 30.7411 42.3165C30.7432 42.471 30.6984 42.6225 30.6124 42.7509C30.5489 42.8462 30.676 42.9485 30.8411 42.9453C38.236 42.7547 44.1668 37.0539 44.1668 30.0363C44.1668 22.9018 38.0251 17.119 30.4498 17.119H30.2116C37.254 17.2315 42.9218 22.6941 42.9218 29.4176Z" fill="#FE4167"/>
<path d="M30.782 42.9466C23.7453 42.8361 18.0782 37.3721 18.0782 30.6486C18.0782 24.1125 23.4392 18.7667 30.2008 18.3774C30.359 18.3678 30.4593 18.27 30.3996 18.1798C30.3104 18.054 30.2615 17.904 30.2594 17.7498C30.2572 17.5955 30.3019 17.4443 30.3875 17.316C30.4511 17.2194 30.324 17.1172 30.1589 17.1216C22.764 17.316 16.8332 23.0225 16.8332 30.0338C16.8332 37.1682 22.9748 42.9523 30.5501 42.9523L30.782 42.9466Z" fill="#FE4167"/>
<path d="M50.1371 7.16052C50.7894 6.10543 51.3544 4.99885 51.8267 3.8518C52.3322 2.63209 52.7307 1.37071 53.0176 0.0819397L31.7203 0.0247725C31.3167 0.00825749 30.91 0 30.5001 0C23.3322 0.000873504 16.3937 2.52653 10.9026 7.13363C5.41143 11.7407 1.71855 18.1348 0.47219 25.1935C-0.774167 32.2521 0.505655 39.5243 4.087 45.7333C7.66834 51.9423 13.3223 56.6915 20.0564 59.147C26.7906 61.6026 34.1744 61.6076 40.9119 59.1613C47.6494 56.715 53.3099 51.9736 56.8997 45.7695C60.4896 39.5654 61.7794 32.295 60.5427 25.2346C59.306 18.1743 55.6219 11.7751 50.1371 7.16052ZM30.5001 52.0648C26.2365 52.0648 22.0687 50.8005 18.5237 48.4318C14.9786 46.0631 12.2156 42.6964 10.584 38.7573C8.95234 34.8183 8.5254 30.4839 9.35713 26.3023C10.1889 22.1206 12.2419 18.2795 15.2567 15.2647C18.2714 12.2498 22.1125 10.1966 26.2941 9.36478C30.4758 8.53292 34.8102 8.95973 38.7492 10.5912C42.6883 12.2228 46.0551 14.9857 48.4239 18.5307C50.7927 22.0756 52.0571 26.2434 52.0572 30.507C52.0561 36.224 49.7845 41.7065 45.742 45.7491C41.6996 49.7917 36.2171 52.0634 30.5001 52.0648Z" fill="#FE4167"/>
</g>
<defs>
<clipPath id="clip0_1:5">
<rect width="61" height="61" fill="white"/>
</clipPath>
</defs>
</svg>
