<svg xmlns="http://www.w3.org/2000/svg" width="1440" height="2160" viewBox="0 0 1440 2160">
  <g id="Group_1549" data-name="Group 1549" transform="translate(0)">
    <rect id="Rectangle_1653" data-name="Rectangle 1653" width="1440" height="2160" fill="#0c1a3e"/>
    <g id="Group_1548" data-name="Group 1548">
      <path id="Path_1098" data-name="Path 1098" d="M0,0V141.1l231.119-30.375Z" transform="translate(211.138 1341.161) rotate(-156)" fill="#ff566f"/>
      <circle id="Ellipse_10" data-name="Ellipse 10" cx="12.5" cy="12.5" r="12.5" transform="translate(308.156 359.608)" fill="#ffdc97"/>
      <circle id="Ellipse_9" data-name="Ellipse 9" cx="8.5" cy="8.5" r="8.5" transform="translate(1423 100)" fill="#ffdc97"/>
      <path id="Path_1095" data-name="Path 1095" d="M0,0V124.512l203.95-26.8Z" transform="translate(1439.948 35.377) rotate(100)" fill="#ff566f"/>
      <path id="Path_1099" data-name="Path 1099" d="M0,0V55L90.082,43.156Z" transform="translate(497.787 1955.073) rotate(11)" fill="#ff566f"/>
      <path id="Path_1096" data-name="Path 1096" d="M1.93,42.279c-16.211,93.063,75.051,45.03,75.051,45.03s54.6-29.618,28.219-73.249S1.93,42.279,1.93,42.279Z" transform="matrix(0.469, -0.883, 0.883, 0.469, 1280.488, 1142.441)" fill="#bfffff"/>
      <path id="Path_1100" data-name="Path 1100" d="M-3079.005,2925.454c-7.777,44.646,36.005,21.6,36.005,21.6s26.195-14.209,13.538-35.141S-3079.005,2925.454-3079.005,2925.454Z" transform="translate(4448.946 -1324.422)" fill="#bfffff"/>
      <path id="Path_1097" data-name="Path 1097" d="M-3078.645,2933.356c-10.807,62.04,50.032,30.019,50.032,30.019s36.4-19.745,18.812-48.832S-3078.645,2933.356-3078.645,2933.356Z" transform="translate(3376.82 -2905.171)" fill="#bfffff"/>
      <circle id="Ellipse_14" data-name="Ellipse 14" cx="8.5" cy="8.5" r="8.5" transform="translate(1409 807)" fill="#ffdc97"/>
      <circle id="Ellipse_15" data-name="Ellipse 15" cx="8.5" cy="8.5" r="8.5" transform="translate(281.224 1674.162)" fill="#ffdc97"/>
      <circle id="Ellipse_18" data-name="Ellipse 18" cx="8.5" cy="8.5" r="8.5" transform="translate(1396 2026)" fill="#ffdc97"/>
      <path id="Path_1105" data-name="Path 1105" d="M-3242.046,3584.533c361.993-38.885,499.7,129.608,499.7,129.608s137.711-233.3,371.828-209.534,306.9,220.333,306.9,220.333,32.607-54,112.7-34.562S-1820,3841.589-1820,3841.589H-3260V3584.533Z" transform="translate(3259.999 -1681.589)" fill="#60aef1"/>
      <circle id="Ellipse_16" data-name="Ellipse 16" cx="8.5" cy="8.5" r="8.5" transform="translate(500.972 2096)" fill="#ffdc97"/>
      <circle id="Ellipse_17" data-name="Ellipse 17" cx="8.5" cy="8.5" r="8.5" transform="translate(957.758 2004)" fill="#ffdc97"/>
    </g>
  </g>
</svg>
